<svg  fill="currentColor" xmlns="http://www.w3.org/2000/svg" xmlns:xlink="http://www.w3.org/1999/xlink" width="30" height="30" viewBox="0 0 30 30"><defs><style>.b{clip-path:url(#a);}</style><clipPath id="a"><circle class="abb" cx="15" cy="15" r="15" transform="translate(-1.262 -0.676)"/></clipPath></defs><g class="bga" transform="translate(1.262 0.676)"><g transform="translate(1.095 -0.064)"><path class="abb" d="M46.665,22.779A9.211,9.211,0,0,0,39.931,17.8a2.387,2.387,0,0,0-1.518.306,7.968,7.968,0,0,1-9.041-.024,2.05,2.05,0,0,0-1.6-.308,9.354,9.354,0,0,0-6.725,5.109,1.073,1.073,0,0,0,.066,1.208,15.02,15.02,0,0,0,25.471,0A1.125,1.125,0,0,0,46.665,22.779Z" transform="translate(-20.894 -2.037)"/><path class="abb" d="M33.141,18.807a7.548,7.548,0,1,0-7.392-7.716A7.562,7.562,0,0,0,33.141,18.807Z" transform="translate(-20.313 -3.713)"/></g></g></svg>