<svg xmlns="http://www.w3.org/2000/svg" fill="#95ee9d" xmlns:xlink="http://www.w3.org/1999/xlink" width="22" height="22" viewBox="0 0 22 22"><defs><style>.b{clip-path:url(#a);}</style><clipPath id="a"><circle cx="11" cy="11" r="11" transform="translate(-0.586 0.001)"/></clipPath></defs><g class="b" transform="translate(0.586 -0.001)"><g transform="translate(0.47 0.025)"><path  d="M40.143,21.5a6.88,6.88,0,0,0-5.03-3.72,1.783,1.783,0,0,0-1.133.228,5.951,5.951,0,0,1-6.753-.018,1.531,1.531,0,0,0-1.194-.23,6.987,6.987,0,0,0-5.023,3.816.8.8,0,0,0,.049.9,11.218,11.218,0,0,0,19.024,0A.84.84,0,0,0,40.143,21.5Z" transform="translate(-20.894 -6.007)"/><path  d="M31.27,14.987a5.638,5.638,0,1,0-5.521-5.763A5.648,5.648,0,0,0,31.27,14.987Z" transform="translate(-21.689 -3.713)"/></g></g></svg>