<svg fill="#ff0" xmlns="http://www.w3.org/2000/svg" width="25.142" height="19.904" viewBox="0 0 25.142 19.904"><defs><style></style></defs><path  d="M173.05,555.807l-3.341-.014v.244c.035.246.072.491.1.737.149,1.172.3,2.344.442,3.517a2.783,2.783,0,0,0,1.222,2.029,2.813,2.813,0,0,0,2.056.488v-7Z" transform="translate(-169.709 -554.388)"/><path  d="M600.737,556.418q-1.77,0-3.54,0a.987.987,0,0,0-.16.026V563.4a2.869,2.869,0,0,0,3.219-2.205c.106-.539.151-1.089.219-1.635.08-.634.153-1.269.234-1.9.044-.343.1-.684.149-1.026v-.2A.878.878,0,0,0,600.737,556.418Z" transform="translate(-575.717 -554.981)"/><path  d="M291.923,527.028H277.566c0,.079-.01.142-.01.206q0,3.394,0,6.788a6.584,6.584,0,0,0,.068,1.044,6.772,6.772,0,0,0,1.932,3.816,7.12,7.12,0,0,0,6.587,2.027,6.9,6.9,0,0,0,4.283-2.586,6.5,6.5,0,0,0,1.5-4.042c.027-2.36.01-4.721.011-7.081C291.935,527.146,291.928,527.091,291.923,527.028Z" transform="translate(-272.174 -527.028)"/><path  d="M336.554,845.861a.27.27,0,0,0-.312-.222q-2.568.011-5.136,0a.293.293,0,0,0-.337.254c-.229.732-.475,1.458-.719,2.2h-1.007v1.887h9.246v-1.891h-1.013C337.031,847.337,336.785,846.6,336.554,845.861Z" transform="translate(-321.094 -830.075)"/></svg>